<?xml version="1.0" encoding="UTF-8"?>
<svg id="Layer_1" data-name="Layer 1" xmlns="http://www.w3.org/2000/svg" version="1.1" viewBox="0 0 637 17">
  <defs>
    <style>
      .cls-1 {
        fill: #ff4a4b;
        stroke-width: 0px;
      }

      .cls-2 {
        isolation: isolate;
      }
    </style>
  </defs>
  <g id="_With_Solutions_Personal_Contract_Plan._Ordered_by_01_07_2024._T_Cs_Apply._Indemnities_may_be_required._SEAT_Finance._" data-name=" With Solutions Personal Contract Plan. Ordered by 01 07 2024. T Cs Apply. Indemnities may be required. SEAT Finance. " class="cls-2">
    <g class="cls-2">
      <path class="cls-1" d="M22.2,6.5l-.8.6-.9-1.5-.9,1.5-.8-.6,1.1-1.2-1.6-.4.3-1,1.5.7-.2-1.6h1v1.6c-.1,0,1.4-.7,1.4-.7l.3,1-1.6.4,1.1,1.2Z"/>
      <path class="cls-1" d="M31.7,11h-1l-1.8-6.8-1.9,6.8h-1l-2.2-8.4h1l1.7,7.2,2-7.2h.8l1.9,7.2,1.8-7.2h1l-2.2,8.4Z"/>
      <path class="cls-1" d="M34.5,3.5c0-.2,0-.4.2-.5.1-.1.3-.2.5-.2s.4,0,.5.2c.1.1.2.3.2.5s0,.4-.2.5c-.1.1-.3.2-.5.2s-.4,0-.5-.2c-.1-.1-.2-.3-.2-.5ZM35.7,5.3v5.7h-.9v-5.7h.9Z"/>
      <path class="cls-1" d="M39,11.1c-1,0-1.5-.6-1.5-1.7v-3.2h-.9v-.8h.9v-1.4h.9v1.4h1.3v.8h-1.3v3.2c0,.4,0,.6.2.7.1.1.3.2.5.2s.5,0,.7,0v.8c-.2,0-.5.1-.8.1Z"/>
      <path class="cls-1" d="M45.8,7.4v3.6h-.9v-3.4c0-.5-.1-1-.3-1.2-.2-.3-.6-.4-1.1-.4s-.7.1-.9.3c-.2.2-.4.5-.5.8-.1.3-.2.6-.2.9v3h-.9V2.6h.9v3.7c.2-.4.5-.6.8-.8s.7-.3,1.1-.3c.7,0,1.2.2,1.5.6.4.4.5.9.5,1.6Z"/>
      <path class="cls-1" d="M49.4,9.7l.7-.6c.6.8,1.4,1.2,2.3,1.2s1.1-.1,1.4-.4.6-.7.6-1.2-.1-.8-.4-1c-.3-.2-.7-.4-1.2-.5l-.9-.3c-.4-.1-.8-.2-1.1-.4-.3-.1-.6-.4-.9-.7-.3-.3-.4-.7-.4-1.2s.1-.9.4-1.2c.3-.3.6-.6,1-.7.4-.2.9-.2,1.4-.2s1.1.1,1.6.3c.5.2.9.5,1.2.9l-.6.7c-.3-.3-.6-.6-1-.7-.4-.2-.8-.3-1.3-.3s-.9.1-1.3.3c-.4.2-.5.5-.5.9s.2.7.5.9.7.4,1.1.5l.9.3c.4.1.8.3,1.1.4.3.2.6.4.9.7s.4.7.4,1.2-.1.9-.4,1.3c-.3.4-.6.6-1.1.8-.5.2-1,.3-1.5.3s-1.2-.1-1.7-.4c-.5-.2-.9-.6-1.3-1.1Z"/>
      <path class="cls-1" d="M56.7,9.7c-.2-.4-.4-1-.4-1.5s.1-1.1.4-1.5c.2-.4.6-.8,1-1.1.4-.3.9-.4,1.4-.4s1,.1,1.4.4c.4.3.8.6,1,1.1s.4,1,.4,1.5-.1,1.1-.4,1.5c-.2.4-.6.8-1,1-.4.2-.9.4-1.4.4s-1-.1-1.4-.4c-.4-.2-.8-.6-1-1ZM60.8,9.3c.2-.3.2-.7.2-1.1s0-.8-.2-1.1c-.2-.3-.4-.6-.7-.7-.3-.2-.6-.3-1-.3s-.7,0-1,.3c-.3.2-.5.4-.7.7-.2.3-.2.7-.2,1.1s0,.8.2,1.1.4.6.7.7c.3.2.6.3,1,.3s.7,0,1-.3c.3-.2.5-.4.7-.7Z"/>
      <path class="cls-1" d="M63.4,10.4c-.1-.3-.2-.6-.2-1.1V2.6h.9v6.6c0,.3,0,.5,0,.6,0,.1.1.2.3.3.1,0,.3,0,.5,0h0v.8c0,0-.1,0-.1,0-.4,0-.8,0-1-.2-.3-.1-.5-.3-.6-.5Z"/>
      <path class="cls-1" d="M65.9,8.9v-3.5h.9v3.3c0,1.1.5,1.7,1.5,1.7s1.5-.6,1.5-1.7v-3.3h.9v3.5c0,.7-.2,1.2-.6,1.7-.4.4-1,.6-1.8.6s-1.4-.2-1.8-.6c-.4-.4-.6-1-.6-1.7Z"/>
      <path class="cls-1" d="M73.9,11.1c-1,0-1.5-.6-1.5-1.7v-3.2h-.9v-.8h.9v-1.4h.9v1.4h1.3v.8h-1.3v3.2c0,.4,0,.6.2.7.1.1.3.2.5.2s.5,0,.7,0v.8c-.2,0-.5.1-.8.1Z"/>
      <path class="cls-1" d="M75.6,3.5c0-.2,0-.4.2-.5.1-.1.3-.2.5-.2s.4,0,.5.2c.1.1.2.3.2.5s0,.4-.2.5c-.1.1-.3.2-.5.2s-.4,0-.5-.2c-.1-.1-.2-.3-.2-.5ZM76.8,5.3v5.7h-.9v-5.7h.9Z"/>
      <path class="cls-1" d="M78.3,9.7c-.2-.4-.4-1-.4-1.5s.1-1.1.4-1.5c.2-.4.6-.8,1-1.1.4-.3.9-.4,1.4-.4s1,.1,1.4.4c.4.3.8.6,1,1.1s.4,1,.4,1.5-.1,1.1-.4,1.5c-.2.4-.6.8-1,1-.4.2-.9.4-1.4.4s-1-.1-1.4-.4c-.4-.2-.8-.6-1-1ZM82.4,9.3c.2-.3.2-.7.2-1.1s0-.8-.2-1.1c-.2-.3-.4-.6-.7-.7-.3-.2-.6-.3-1-.3s-.7,0-1,.3c-.3.2-.5.4-.7.7-.2.3-.2.7-.2,1.1s0,.8.2,1.1.4.6.7.7c.3.2.6.3,1,.3s.7,0,1-.3c.3-.2.5-.4.7-.7Z"/>
      <path class="cls-1" d="M89.7,7.4v3.6h-.9v-3.4c0-.5-.1-1-.3-1.2-.2-.3-.6-.4-1.1-.4s-.7.1-.9.3c-.2.2-.4.5-.5.8-.1.3-.2.6-.2.9v3h-.9v-5.7h.8v1c.3-.4.5-.6.9-.8.3-.2.7-.3,1.1-.3.7,0,1.2.2,1.5.6.4.4.5.9.5,1.6Z"/>
      <path class="cls-1" d="M90.7,10.2l.7-.6c.2.2.4.4.7.5s.5.2.8.2.7,0,1-.2.3-.4.3-.6,0-.5-.3-.6c-.2-.1-.5-.3-1-.4h-.2c-.4-.2-.7-.3-.9-.4s-.5-.3-.6-.5c-.2-.2-.3-.5-.3-.8s.2-.8.5-1.1c.3-.3.8-.4,1.5-.4s.9,0,1.2.2c.4.1.7.3.9.5l-.6.6c-.2-.1-.4-.3-.6-.4-.3-.1-.6-.2-.9-.2s-.6,0-.8.2c-.2.1-.3.3-.3.5s0,.4.3.5c.2.1.5.2.8.3h.2c.4.2.8.4,1.1.5s.5.3.7.5c.2.2.2.5.2.8,0,.6-.2,1-.6,1.3s-1,.4-1.6.4-.9,0-1.2-.2c-.3-.2-.6-.4-.9-.7Z"/>
      <path class="cls-1" d="M104.4,5.4c0,.5-.1,1-.3,1.4-.2.4-.6.7-1,1-.4.2-1,.4-1.6.4h-1.7v2.9h-.9V2.6h2.7c1,0,1.7.2,2.2.7s.8,1.2.8,2ZM103.4,5.4c0-.6-.2-1.1-.5-1.4-.3-.3-.9-.5-1.6-.5h-1.7v3.8h1.6c.7,0,1.2-.2,1.6-.5s.5-.8.5-1.4Z"/>
      <path class="cls-1" d="M106,8.5c0,.6.3,1,.6,1.3s.8.4,1.3.4.7,0,1-.2.5-.3.7-.5l.7.6c-.3.3-.6.5-1,.7-.4.2-.9.3-1.4.3s-1.1-.1-1.5-.4-.8-.6-1-1c-.2-.4-.3-1-.3-1.6s.1-1.1.3-1.6c.2-.4.5-.8,1-1,.4-.2.9-.4,1.5-.4s1.1.1,1.5.4c.4.3.7.6.9,1.1.2.4.3.9.3,1.5v.4h-4.5ZM106,7.8h3.6c0-.6-.2-1-.6-1.3-.3-.3-.7-.4-1.2-.4s-.9.1-1.2.4-.5.7-.6,1.3Z"/>
      <path class="cls-1" d="M114.6,6.2c-.2,0-.3,0-.5,0-.5,0-.9.2-1.1.6-.2.4-.4.9-.4,1.6v2.7h-.9v-5.7h.8v1c.3-.4.5-.7.8-.9.3-.2.6-.3,1-.3s.3,0,.4,0v1Z"/>
      <path class="cls-1" d="M115.3,10.2l.7-.6c.2.2.4.4.7.5s.5.2.8.2.7,0,1-.2.3-.4.3-.6,0-.5-.3-.6c-.2-.1-.5-.3-1-.4h-.2c-.4-.2-.7-.3-.9-.4s-.5-.3-.6-.5c-.2-.2-.3-.5-.3-.8s.2-.8.5-1.1c.3-.3.8-.4,1.5-.4s.9,0,1.2.2c.4.1.7.3.9.5l-.6.6c-.2-.1-.4-.3-.6-.4-.3-.1-.6-.2-.9-.2s-.6,0-.8.2c-.2.1-.3.3-.3.5s0,.4.3.5c.2.1.5.2.8.3h.2c.4.2.8.4,1.1.5s.5.3.7.5c.2.2.2.5.2.8,0,.6-.2,1-.6,1.3s-1,.4-1.6.4-.9,0-1.2-.2c-.3-.2-.6-.4-.9-.7Z"/>
      <path class="cls-1" d="M120.9,9.7c-.2-.4-.4-1-.4-1.5s.1-1.1.4-1.5c.2-.4.6-.8,1-1.1.4-.3.9-.4,1.4-.4s1,.1,1.4.4c.4.3.8.6,1,1.1s.4,1,.4,1.5-.1,1.1-.4,1.5c-.2.4-.6.8-1,1-.4.2-.9.4-1.4.4s-1-.1-1.4-.4c-.4-.2-.8-.6-1-1ZM125,9.3c.2-.3.2-.7.2-1.1s0-.8-.2-1.1c-.2-.3-.4-.6-.7-.7-.3-.2-.6-.3-1-.3s-.7,0-1,.3c-.3.2-.5.4-.7.7-.2.3-.2.7-.2,1.1s0,.8.2,1.1.4.6.7.7c.3.2.6.3,1,.3s.7,0,1-.3c.3-.2.5-.4.7-.7Z"/>
      <path class="cls-1" d="M132.3,7.4v3.6h-.9v-3.4c0-.5-.1-1-.3-1.2-.2-.3-.6-.4-1.1-.4s-.7.1-.9.3c-.2.2-.4.5-.5.8-.1.3-.2.6-.2.9v3h-.9v-5.7h.8v1c.3-.4.5-.6.9-.8.3-.2.7-.3,1.1-.3.7,0,1.2.2,1.5.6.4.4.5.9.5,1.6Z"/>
      <path class="cls-1" d="M139.1,11h-.8v-1c-.3.3-.6.6-.9.8-.4.2-.8.3-1.2.3s-1-.1-1.4-.4c-.4-.3-.7-.6-1-1.1-.2-.4-.4-.9-.4-1.5s.1-1.1.4-1.5c.2-.5.6-.8,1-1.1s.9-.4,1.4-.4.8,0,1.1.3c.3.2.6.4.8.8v-.9h.9v5.7ZM138,9.2c.2-.3.2-.7.2-1.1s0-.8-.2-1.1c-.2-.3-.4-.6-.7-.8-.3-.2-.6-.3-1-.3s-.7,0-1,.3-.5.4-.7.8c-.2.3-.2.7-.2,1.1s0,.8.2,1.1c.2.3.4.6.7.8s.6.3,1,.3.7,0,1-.3c.3-.2.5-.4.7-.8Z"/>
      <path class="cls-1" d="M140.7,10.4c-.1-.3-.2-.6-.2-1.1V2.6h.9v6.6c0,.3,0,.5,0,.6,0,.1.1.2.3.3.1,0,.3,0,.5,0h0v.8c0,0-.1,0-.1,0-.4,0-.8,0-1-.2-.3-.1-.5-.3-.6-.5Z"/>
      <path class="cls-1" d="M146.1,9c-.3-.7-.5-1.4-.5-2.2s.2-1.5.5-2.2c.3-.7.8-1.2,1.5-1.6.6-.4,1.3-.6,2.2-.6s1.2.1,1.7.3.9.5,1.3.9l-.6.7c-.3-.3-.6-.6-1-.7-.4-.2-.9-.3-1.3-.3s-1.2.2-1.7.5-.8.7-1.1,1.2c-.3.5-.4,1.1-.4,1.8s.1,1.2.4,1.8c.3.5.6.9,1.1,1.2.5.3,1,.5,1.7.5,1.1,0,1.9-.4,2.5-1.2l.7.6c-.4.4-.8.8-1.3,1-.5.2-1.1.4-1.8.4s-1.6-.2-2.2-.6c-.6-.4-1.1-.9-1.5-1.6Z"/>
      <path class="cls-1" d="M154.2,9.7c-.2-.4-.4-1-.4-1.5s.1-1.1.4-1.5c.2-.4.6-.8,1-1.1.4-.3.9-.4,1.4-.4s1,.1,1.4.4c.4.3.8.6,1,1.1s.4,1,.4,1.5-.1,1.1-.4,1.5c-.2.4-.6.8-1,1-.4.2-.9.4-1.4.4s-1-.1-1.4-.4c-.4-.2-.8-.6-1-1ZM158.3,9.3c.2-.3.2-.7.2-1.1s0-.8-.2-1.1c-.2-.3-.4-.6-.7-.7-.3-.2-.6-.3-1-.3s-.7,0-1,.3c-.3.2-.5.4-.7.7-.2.3-.2.7-.2,1.1s0,.8.2,1.1.4.6.7.7c.3.2.6.3,1,.3s.7,0,1-.3c.3-.2.5-.4.7-.7Z"/>
      <path class="cls-1" d="M165.6,7.4v3.6h-.9v-3.4c0-.5-.1-1-.3-1.2-.2-.3-.6-.4-1.1-.4s-.7.1-.9.3c-.2.2-.4.5-.5.8-.1.3-.2.6-.2.9v3h-.9v-5.7h.8v1c.3-.4.5-.6.9-.8.3-.2.7-.3,1.1-.3.7,0,1.2.2,1.5.6.4.4.5.9.5,1.6Z"/>
      <path class="cls-1" d="M168.8,11.1c-1,0-1.5-.6-1.5-1.7v-3.2h-.9v-.8h.9v-1.4h.9v1.4h1.3v.8h-1.3v3.2c0,.4,0,.6.2.7.1.1.3.2.5.2s.5,0,.7,0v.8c-.2,0-.5.1-.8.1Z"/>
      <path class="cls-1" d="M173.6,6.2c-.2,0-.3,0-.5,0-.5,0-.9.2-1.1.6-.2.4-.4.9-.4,1.6v2.7h-.9v-5.7h.8v1c.3-.4.5-.7.8-.9.3-.2.6-.3,1-.3s.3,0,.4,0v1Z"/>
      <path class="cls-1" d="M179.7,11h-.8v-1c-.3.3-.6.6-.9.8-.4.2-.8.3-1.2.3s-1-.1-1.4-.4c-.4-.3-.7-.6-1-1.1-.2-.4-.4-.9-.4-1.5s.1-1.1.4-1.5c.2-.5.6-.8,1-1.1s.9-.4,1.4-.4.8,0,1.1.3c.3.2.6.4.8.8v-.9h.9v5.7ZM178.5,9.2c.2-.3.2-.7.2-1.1s0-.8-.2-1.1c-.2-.3-.4-.6-.7-.8-.3-.2-.6-.3-1-.3s-.7,0-1,.3-.5.4-.7.8c-.2.3-.2.7-.2,1.1s0,.8.2,1.1c.2.3.4.6.7.8s.6.3,1,.3.7,0,1-.3c.3-.2.5-.4.7-.8Z"/>
      <path class="cls-1" d="M181.2,9.7c-.2-.4-.4-1-.4-1.5s.1-1.1.4-1.5c.2-.5.6-.8,1-1,.4-.2.9-.4,1.4-.4s.8,0,1.1.2c.3.1.6.3.9.6l-.6.6c-.2-.2-.4-.3-.6-.4-.2-.1-.5-.2-.8-.2s-.7,0-1,.3c-.3.2-.5.4-.7.7-.2.3-.2.7-.2,1.1s0,.8.2,1.1c.2.3.4.6.7.7.3.2.6.3,1,.3s.6,0,.8-.2c.2-.1.5-.3.6-.5l.7.6c-.2.3-.6.5-.9.7-.4.2-.8.2-1.2.2s-1-.1-1.5-.4c-.4-.2-.8-.6-1-1Z"/>
      <path class="cls-1" d="M188.7,11.1c-1,0-1.5-.6-1.5-1.7v-3.2h-.9v-.8h.9v-1.4h.9v1.4h1.3v.8h-1.3v3.2c0,.4,0,.6.2.7.1.1.3.2.5.2s.5,0,.7,0v.8c-.2,0-.5.1-.8.1Z"/>
      <path class="cls-1" d="M198.7,5.4c0,.5-.1,1-.3,1.4-.2.4-.6.7-1,1-.4.2-1,.4-1.6.4h-1.7v2.9h-.9V2.6h2.7c1,0,1.7.2,2.2.7s.8,1.2.8,2ZM197.8,5.4c0-.6-.2-1.1-.5-1.4-.3-.3-.9-.5-1.6-.5h-1.7v3.8h1.6c.7,0,1.2-.2,1.6-.5s.5-.8.5-1.4Z"/>
      <path class="cls-1" d="M200.1,10.4c-.1-.3-.2-.6-.2-1.1V2.6h.9v6.6c0,.3,0,.5,0,.6,0,.1.1.2.3.3.1,0,.3,0,.5,0h0v.8c0,0-.1,0-.1,0-.4,0-.8,0-1-.2-.3-.1-.5-.3-.6-.5Z"/>
      <path class="cls-1" d="M208,11h-.8v-1c-.3.3-.6.6-.9.8-.4.2-.8.3-1.2.3s-1-.1-1.4-.4c-.4-.3-.7-.6-1-1.1-.2-.4-.4-.9-.4-1.5s.1-1.1.4-1.5c.2-.5.6-.8,1-1.1s.9-.4,1.4-.4.8,0,1.1.3c.3.2.6.4.8.8v-.9h.9v5.7ZM206.9,9.2c.2-.3.2-.7.2-1.1s0-.8-.2-1.1c-.2-.3-.4-.6-.7-.8-.3-.2-.6-.3-1-.3s-.7,0-1,.3c-.3.2-.5.4-.7.8-.2.3-.2.7-.2,1.1s0,.8.2,1.1c.2.3.4.6.7.8.3.2.6.3,1,.3s.7,0,1-.3c.3-.2.5-.4.7-.8Z"/>
      <path class="cls-1" d="M213.3,7.4v3.6h-.9v-3.4c0-.5-.1-1-.3-1.2-.2-.3-.6-.4-1.1-.4s-.7.1-.9.3c-.2.2-.4.5-.5.8-.1.3-.2.6-.2.9v3h-.9v-5.7h.8v1c.3-.4.5-.6.9-.8.3-.2.7-.3,1.1-.3.7,0,1.2.2,1.5.6.4.4.5.9.5,1.6Z"/>
      <path class="cls-1" d="M214.5,10.4c0-.2,0-.4.2-.5.1-.1.3-.2.5-.2s.4,0,.5.2c.1.1.2.3.2.5s0,.4-.2.5c-.1.1-.3.2-.5.2s-.4,0-.5-.2c-.1-.1-.2-.3-.2-.5Z"/>
      <path class="cls-1" d="M219.9,9c-.4-.7-.5-1.4-.5-2.2s.2-1.5.5-2.2.9-1.2,1.5-1.6c.6-.4,1.3-.6,2.1-.6s1.5.2,2.1.6c.6.4,1.1.9,1.5,1.6s.5,1.4.5,2.2-.2,1.5-.5,2.2c-.4.7-.9,1.2-1.5,1.6-.6.4-1.3.6-2.1.6s-1.5-.2-2.1-.6c-.6-.4-1.1-.9-1.5-1.6ZM226.3,8.6c.3-.5.4-1.1.4-1.8s-.1-1.2-.4-1.8c-.3-.5-.6-.9-1.1-1.2s-1-.4-1.6-.4-1.1.1-1.6.4-.9.7-1.1,1.2c-.3.5-.4,1.1-.4,1.8s.1,1.2.4,1.8c.3.5.7.9,1.1,1.2s1,.4,1.6.4,1.1-.1,1.6-.4.9-.7,1.1-1.2Z"/>
      <path class="cls-1" d="M231.8,6.2c-.2,0-.3,0-.5,0-.5,0-.9.2-1.1.6-.2.4-.4.9-.4,1.6v2.7h-.9v-5.7h.8v1c.3-.4.5-.7.8-.9.3-.2.6-.3,1-.3s.3,0,.4,0v1Z"/>
      <path class="cls-1" d="M237.8,11h-.8v-.9c-.3.3-.6.6-.9.8-.3.2-.7.3-1.2.3s-1-.1-1.4-.4c-.4-.3-.7-.6-1-1.1s-.4-.9-.4-1.5.1-1.1.4-1.5c.2-.5.6-.8,1-1.1s.9-.4,1.4-.4.8,0,1.1.3.6.4.8.7v-3.6h.9v8.4ZM236.7,9.2c.2-.3.2-.7.2-1.1s0-.8-.2-1.1c-.2-.3-.4-.6-.7-.8s-.6-.3-1-.3-.7,0-1,.3c-.3.2-.5.4-.7.8s-.2.7-.2,1.1,0,.8.2,1.1c.2.3.4.6.7.7.3.2.6.3,1,.3s.7,0,1-.3c.3-.2.5-.4.7-.8Z"/>
      <path class="cls-1" d="M240,8.5c0,.6.3,1,.6,1.3.3.3.8.4,1.3.4s.7,0,1-.2.5-.3.7-.5l.7.6c-.3.3-.6.5-1,.7-.4.2-.9.3-1.4.3s-1.1-.1-1.5-.4-.8-.6-1-1c-.2-.4-.3-1-.3-1.6s.1-1.1.3-1.6c.2-.4.5-.8,1-1,.4-.2.9-.4,1.5-.4s1.1.1,1.5.4c.4.3.7.6.9,1.1.2.4.3.9.3,1.5v.4h-4.5ZM240,7.8h3.6c0-.6-.2-1-.6-1.3-.3-.3-.7-.4-1.2-.4s-.9.1-1.2.4-.5.7-.6,1.3Z"/>
      <path class="cls-1" d="M248.6,6.2c-.2,0-.3,0-.5,0-.5,0-.9.2-1.1.6-.2.4-.4.9-.4,1.6v2.7h-.9v-5.7h.8v1c.3-.4.5-.7.8-.9.3-.2.6-.3,1-.3s.3,0,.4,0v1Z"/>
      <path class="cls-1" d="M250,8.5c0,.6.3,1,.6,1.3.3.3.8.4,1.3.4s.7,0,1-.2.5-.3.7-.5l.7.6c-.3.3-.6.5-1,.7-.4.2-.9.3-1.4.3s-1.1-.1-1.5-.4-.8-.6-1-1c-.2-.4-.3-1-.3-1.6s.1-1.1.3-1.6c.2-.4.5-.8,1-1,.4-.2.9-.4,1.5-.4s1.1.1,1.5.4c.4.3.7.6.9,1.1.2.4.3.9.3,1.5v.4h-4.5ZM250,7.8h3.6c0-.6-.2-1-.6-1.3-.3-.3-.7-.4-1.2-.4s-.9.1-1.2.4-.5.7-.6,1.3Z"/>
      <path class="cls-1" d="M261.1,11h-.8v-.9c-.3.3-.6.6-.9.8-.3.2-.7.3-1.2.3s-1-.1-1.4-.4c-.4-.3-.7-.6-1-1.1s-.4-.9-.4-1.5.1-1.1.4-1.5c.2-.5.6-.8,1-1.1s.9-.4,1.4-.4.8,0,1.1.3.6.4.8.7v-3.6h.9v8.4ZM260,9.2c.2-.3.2-.7.2-1.1s0-.8-.2-1.1c-.2-.3-.4-.6-.7-.8s-.6-.3-1-.3-.7,0-1,.3c-.3.2-.5.4-.7.8s-.2.7-.2,1.1,0,.8.2,1.1c.2.3.4.6.7.7.3.2.6.3,1,.3s.7,0,1-.3c.3-.2.5-.4.7-.8Z"/>
      <path class="cls-1" d="M270.2,6.7c.2.4.4.9.4,1.5s-.1,1.1-.4,1.5-.6.8-1,1.1c-.4.3-.9.4-1.4.4s-.8,0-1.2-.3-.6-.4-.8-.7v.9h-.9V2.6h.9v3.6c.2-.3.5-.5.8-.7.3-.2.7-.3,1.1-.3s1,.1,1.4.4c.4.3.7.6,1,1.1ZM269.4,9.3c.2-.3.2-.7.2-1.1s0-.8-.2-1.1c-.2-.3-.4-.6-.7-.8-.3-.2-.6-.3-1-.3s-.7,0-1,.3c-.3.2-.5.4-.7.8-.2.3-.2.7-.2,1.1s0,.8.2,1.1c.2.3.4.6.7.8.3.2.6.3,1,.3s.7,0,1-.3c.3-.2.5-.4.7-.7Z"/>
      <path class="cls-1" d="M273.2,13.1h-.9l.9-2.2-2.3-5.6h1l1.8,4.6,1.8-4.6h1l-3.2,7.8Z"/>
      <path class="cls-1" d="M279.8,9.1c-.3-.6-.4-1.4-.4-2.3s.1-1.7.4-2.3c.3-.6.6-1.1,1.1-1.5s1-.5,1.7-.5,1.2.2,1.7.5c.5.3.8.8,1.1,1.5.3.6.4,1.4.4,2.3s-.1,1.7-.4,2.3-.6,1.1-1.1,1.5c-.5.3-1,.5-1.7.5s-1.2-.2-1.7-.5-.8-.8-1.1-1.5ZM284.8,6.8c0-1.1-.2-1.9-.6-2.5s-.9-.9-1.6-.9-1.2.3-1.6.9c-.4.6-.6,1.4-.6,2.5s.2,1.9.6,2.5c.4.6.9.9,1.6.9s1.2-.3,1.6-.9c.4-.6.6-1.4.6-2.5Z"/>
      <path class="cls-1" d="M289.2,11h-.9v-6.7c-.5,0-1,.1-1.5.1v-.7c.5,0,.9,0,1.1-.2.2-.1.4-.4.5-.8h.8v8.4Z"/>
      <path class="cls-1" d="M294.8,2.6l-2.8,8.4h-1l2.8-8.4h1Z"/>
      <path class="cls-1" d="M296.4,9.1c-.3-.6-.4-1.4-.4-2.3s.1-1.7.4-2.3c.3-.6.6-1.1,1.1-1.5s1-.5,1.7-.5,1.2.2,1.7.5c.5.3.8.8,1.1,1.5.3.6.4,1.4.4,2.3s-.1,1.7-.4,2.3-.6,1.1-1.1,1.5c-.5.3-1,.5-1.7.5s-1.2-.2-1.7-.5-.8-.8-1.1-1.5ZM301.4,6.8c0-1.1-.2-1.9-.6-2.5s-.9-.9-1.6-.9-1.2.3-1.6.9c-.4.6-.6,1.4-.6,2.5s.2,1.9.6,2.5c.4.6.9.9,1.6.9s1.2-.3,1.6-.9c.4-.6.6-1.4.6-2.5Z"/>
      <path class="cls-1" d="M304.1,11h-1l4-7.5h-4.2v-.8h5.7l-4.5,8.4Z"/>
      <path class="cls-1" d="M312.2,2.6l-2.8,8.4h-1l2.8-8.4h1Z"/>
      <path class="cls-1" d="M314.3,10.2h4.1v.8h-5.1v-.5c0-.8.1-1.5.4-2,.3-.6.8-1.1,1.4-1.5l1.3-.8c.3-.2.6-.4.8-.7.2-.3.2-.6.2-.9s-.1-.6-.4-.9c-.3-.2-.6-.3-1.1-.3s-.8,0-1.1.2c-.3.2-.6.4-.8.7l-.6-.6c.3-.3.7-.6,1.1-.8.4-.2.9-.3,1.4-.3s.9,0,1.3.3c.4.2.7.4.9.7s.3.6.3,1c0,1-.6,1.8-1.7,2.5l-1.2.7c-.5.3-.8.6-1,1-.2.4-.3.9-.3,1.4Z"/>
      <path class="cls-1" d="M319.9,9.1c-.3-.6-.4-1.4-.4-2.3s.1-1.7.4-2.3c.3-.6.6-1.1,1.1-1.5s1-.5,1.7-.5,1.2.2,1.7.5.8.8,1.1,1.5c.3.6.4,1.4.4,2.3s-.1,1.7-.4,2.3c-.3.6-.6,1.1-1.1,1.5s-1,.5-1.7.5-1.2-.2-1.7-.5-.8-.8-1.1-1.5ZM324.9,6.8c0-1.1-.2-1.9-.6-2.5s-.9-.9-1.6-.9-1.2.3-1.6.9-.6,1.4-.6,2.5.2,1.9.6,2.5c.4.6.9.9,1.6.9s1.2-.3,1.6-.9c.4-.6.6-1.4.6-2.5Z"/>
      <path class="cls-1" d="M327.9,10.2h4.1v.8h-5.1v-.5c0-.8.1-1.5.4-2,.3-.6.8-1.1,1.4-1.5l1.3-.8c.3-.2.6-.4.8-.7.2-.3.2-.6.2-.9s-.1-.6-.4-.9c-.3-.2-.6-.3-1.1-.3s-.8,0-1.1.2c-.3.2-.6.4-.8.7l-.6-.6c.3-.3.7-.6,1.1-.8.4-.2.9-.3,1.4-.3s.9,0,1.3.3c.4.2.7.4.9.7s.3.6.3,1c0,1-.6,1.8-1.7,2.5l-1.2.7c-.5.3-.8.6-1,1s-.3.9-.3,1.4Z"/>
      <path class="cls-1" d="M337.1,9v2h-.9v-2h-4.2v-.8l1.4-5.5h.9l-1.4,5.5h3.2v-2.8h.9v2.8h1.2v.8h-1.2Z"/>
      <path class="cls-1" d="M338.9,10.4c0-.2,0-.4.2-.5.1-.1.3-.2.5-.2s.4,0,.5.2c.1.1.2.3.2.5s0,.4-.2.5c-.1.1-.3.2-.5.2s-.4,0-.5-.2c-.1-.1-.2-.3-.2-.5Z"/>
      <path class="cls-1" d="M346.5,3.5v7.5h-1V3.5h-2.5v-.8h5.9v.8h-2.5Z"/>
      <path class="cls-1" d="M355,10.4c-.6.5-1.3.7-2.1.7s-1.1-.1-1.5-.3c-.4-.2-.7-.5-.9-.9-.2-.4-.3-.7-.3-1.2s.1-.9.4-1.3c.2-.4.6-.8,1.1-1.1-.6-.7-.9-1.4-.9-2.1s0-.7.2-.9c.2-.3.4-.5.7-.6.3-.2.7-.2,1.1-.2s.7,0,1,.2c.3.2.5.4.6.6.1.3.2.6.2.9,0,.9-.5,1.6-1.6,2.3l2.1,2.4c.3-.5.4-1.2.4-2h.9c0,.5,0,1-.2,1.4-.1.5-.3.9-.5,1.2l1.1,1.3h-1.2l-.6-.6ZM352.1,7c-.3.2-.6.5-.7.8-.2.3-.2.6-.2.9,0,.5.2.8.5,1.1.3.3.8.4,1.3.4s1.1-.2,1.5-.5l-2.4-2.7ZM351.6,4.4c0,.5.2,1,.7,1.6h0c.4-.2.7-.5.9-.7s.3-.6.3-.9,0-.5-.3-.7c-.2-.2-.4-.2-.7-.2s-.5,0-.7.3c-.2.2-.3.4-.3.7Z"/>
      <path class="cls-1" d="M358.2,9c-.3-.7-.5-1.4-.5-2.2s.2-1.5.5-2.2c.3-.7.8-1.2,1.5-1.6.6-.4,1.3-.6,2.2-.6s1.2.1,1.7.3c.5.2.9.5,1.3.9l-.6.7c-.3-.3-.6-.6-1-.7-.4-.2-.9-.3-1.3-.3s-1.2.2-1.7.5c-.5.3-.8.7-1.1,1.2-.3.5-.4,1.1-.4,1.8s.1,1.2.4,1.8c.3.5.6.9,1.1,1.2s1,.5,1.7.5c1.1,0,1.9-.4,2.5-1.2l.7.6c-.4.4-.8.8-1.3,1-.5.2-1.1.4-1.8.4s-1.6-.2-2.2-.6c-.6-.4-1.1-.9-1.5-1.6Z"/>
      <path class="cls-1" d="M365.8,10.2l.7-.6c.2.2.4.4.7.5.2.1.5.2.8.2s.7,0,1-.2.3-.4.3-.6,0-.5-.3-.6c-.2-.1-.5-.3-1-.4h-.2c-.4-.2-.7-.3-.9-.4-.2-.1-.5-.3-.6-.5-.2-.2-.3-.5-.3-.8s.2-.8.5-1.1.8-.4,1.5-.4.9,0,1.2.2.7.3.9.5l-.6.6c-.2-.1-.4-.3-.6-.4-.3-.1-.6-.2-.9-.2s-.6,0-.8.2-.3.3-.3.5,0,.4.3.5c.2.1.5.2.8.3h.2c.4.2.8.4,1.1.5.3.1.5.3.7.5.2.2.2.5.2.8,0,.6-.2,1-.6,1.3s-1,.4-1.6.4-.9,0-1.2-.2c-.3-.2-.6-.4-.9-.7Z"/>
      <path class="cls-1" d="M374.6,9.2l-.6,1.8h-1l2.8-8.4h1.1l2.8,8.4h-1l-.6-1.8h-3.6ZM376.4,3.6l-1.5,4.8h3.1l-1.5-4.8Z"/>
      <path class="cls-1" d="M385.9,6.7c.2.4.4,1,.4,1.5s-.1,1.1-.4,1.5c-.2.4-.6.8-1,1.1-.4.3-.9.4-1.4.4s-.8,0-1.1-.3c-.3-.2-.6-.4-.8-.7v3h-.9v-7.8h.8v1c.3-.3.5-.6.9-.8.3-.2.7-.3,1.2-.3s1,.1,1.4.4.7.6,1,1.1ZM385,9.3c.2-.3.2-.7.2-1.1s0-.8-.2-1.1c-.2-.3-.4-.6-.7-.8-.3-.2-.6-.3-1-.3s-.7,0-1,.3c-.3.2-.5.4-.7.8-.2.3-.2.7-.2,1.1s0,.8.2,1.1c.2.3.4.6.7.8.3.2.6.3,1,.3s.7,0,1-.3c.3-.2.5-.4.7-.7Z"/>
      <path class="cls-1" d="M392.7,6.7c.2.4.4,1,.4,1.5s-.1,1.1-.4,1.5c-.2.4-.6.8-1,1.1s-.9.4-1.4.4-.8,0-1.1-.3c-.3-.2-.6-.4-.8-.7v3h-.9v-7.8h.8v1c.3-.3.5-.6.9-.8.3-.2.7-.3,1.2-.3s1,.1,1.4.4.7.6,1,1.1ZM391.9,9.3c.2-.3.2-.7.2-1.1s0-.8-.2-1.1c-.2-.3-.4-.6-.7-.8-.3-.2-.6-.3-1-.3s-.7,0-1,.3c-.3.2-.5.4-.7.8-.2.3-.2.7-.2,1.1s0,.8.2,1.1c.2.3.4.6.7.8.3.2.6.3,1,.3s.7,0,1-.3c.3-.2.5-.4.7-.7Z"/>
      <path class="cls-1" d="M394.4,10.4c-.1-.3-.2-.6-.2-1.1V2.6h.9v6.6c0,.3,0,.5,0,.6,0,.1.1.2.3.3.1,0,.3,0,.5,0h0v.8c0,0-.1,0-.1,0-.4,0-.8,0-1-.2s-.5-.3-.6-.5Z"/>
      <path class="cls-1" d="M397.6,13.1h-.9l.9-2.2-2.3-5.6h1l1.8,4.6,1.8-4.6h1l-3.2,7.8Z"/>
      <path class="cls-1" d="M400.7,10.4c0-.2,0-.4.2-.5.1-.1.3-.2.5-.2s.4,0,.5.2c.1.1.2.3.2.5s0,.4-.2.5c-.1.1-.3.2-.5.2s-.4,0-.5-.2c-.1-.1-.2-.3-.2-.5Z"/>
      <path class="cls-1" d="M406.8,2.6v8.4h-.9V2.6h.9Z"/>
      <path class="cls-1" d="M413.2,7.4v3.6h-.9v-3.4c0-.5-.1-1-.3-1.2s-.6-.4-1.1-.4-.7.1-.9.3c-.2.2-.4.5-.5.8-.1.3-.2.6-.2.9v3h-.9v-5.7h.8v1c.3-.4.5-.6.9-.8.3-.2.7-.3,1.1-.3.7,0,1.2.2,1.5.6s.5.9.5,1.6Z"/>
      <path class="cls-1" d="M420,11h-.8v-.9c-.3.3-.6.6-.9.8-.3.2-.7.3-1.2.3s-1-.1-1.4-.4c-.4-.3-.7-.6-1-1.1-.2-.5-.4-.9-.4-1.5s.1-1.1.4-1.5.6-.8,1-1.1.9-.4,1.4-.4.8,0,1.1.3.6.4.8.7v-3.6h.9v8.4ZM418.9,9.2c.2-.3.2-.7.2-1.1s0-.8-.2-1.1c-.2-.3-.4-.6-.7-.8-.3-.2-.6-.3-1-.3s-.7,0-1,.3c-.3.2-.5.4-.7.8-.2.3-.2.7-.2,1.1s0,.8.2,1.1c.2.3.4.6.7.7.3.2.6.3,1,.3s.7,0,1-.3c.3-.2.5-.4.7-.8Z"/>
      <path class="cls-1" d="M422.1,8.5c0,.6.3,1,.6,1.3.3.3.8.4,1.3.4s.7,0,1-.2.5-.3.7-.5l.7.6c-.3.3-.6.5-1,.7-.4.2-.9.3-1.4.3s-1.1-.1-1.5-.4c-.4-.2-.8-.6-1-1-.2-.4-.3-1-.3-1.6s.1-1.1.3-1.6c.2-.4.5-.8,1-1s.9-.4,1.5-.4,1.1.1,1.5.4c.4.3.7.6.9,1.1.2.4.3.9.3,1.5v.4h-4.5ZM422.1,7.8h3.6c0-.6-.2-1-.6-1.3-.3-.3-.7-.4-1.2-.4s-.9.1-1.2.4-.5.7-.5,1.3Z"/>
      <path class="cls-1" d="M435.7,6.2c.2.3.3.7.3,1.2v3.6h-.9v-3.4c0-.5,0-.9-.3-1.2-.2-.3-.5-.4-.9-.4s-.9.2-1.1.6c-.2.4-.3.9-.3,1.4v3h-.9v-3.4c0-1.1-.4-1.6-1.2-1.6s-.9.2-1.1.6c-.2.4-.3.9-.3,1.3v3h-.9v-5.7h.8v.9c.3-.3.5-.6.8-.8s.6-.3,1-.3.8.1,1.1.3c.3.2.5.5.7.9.2-.4.4-.7.7-.9.3-.2.7-.3,1.1-.3s.7,0,1,.2c.3.2.5.4.7.7Z"/>
      <path class="cls-1" d="M442.2,7.4v3.6h-.9v-3.4c0-.5-.1-1-.3-1.2s-.6-.4-1.1-.4-.7.1-.9.3c-.2.2-.4.5-.5.8-.1.3-.2.6-.2.9v3h-.9v-5.7h.8v1c.3-.4.5-.6.9-.8.3-.2.7-.3,1.1-.3.7,0,1.2.2,1.5.6s.5.9.5,1.6Z"/>
      <path class="cls-1" d="M443.3,3.5c0-.2,0-.4.2-.5.1-.1.3-.2.5-.2s.4,0,.5.2c.1.1.2.3.2.5s0,.4-.2.5c-.1.1-.3.2-.5.2s-.4,0-.5-.2c-.1-.1-.2-.3-.2-.5ZM444.5,5.3v5.7h-.9v-5.7h.9Z"/>
      <path class="cls-1" d="M447.8,11.1c-1,0-1.5-.6-1.5-1.7v-3.2h-.9v-.8h.9v-1.4h.9v1.4h1.3v.8h-1.3v3.2c0,.4,0,.6.2.7.1.1.3.2.5.2s.5,0,.7,0v.8c-.2,0-.5.1-.8.1Z"/>
      <path class="cls-1" d="M449.4,3.5c0-.2,0-.4.2-.5.1-.1.3-.2.5-.2s.4,0,.5.2c.1.1.2.3.2.5s0,.4-.2.5c-.1.1-.3.2-.5.2s-.4,0-.5-.2c-.1-.1-.2-.3-.2-.5ZM450.6,5.3v5.7h-.9v-5.7h.9Z"/>
      <path class="cls-1" d="M452.8,8.5c0,.6.3,1,.6,1.3.3.3.8.4,1.3.4s.7,0,1-.2.5-.3.7-.5l.7.6c-.3.3-.6.5-1,.7-.4.2-.9.3-1.4.3s-1.1-.1-1.5-.4c-.4-.2-.8-.6-1-1-.2-.4-.3-1-.3-1.6s.1-1.1.3-1.6c.2-.4.5-.8,1-1s.9-.4,1.5-.4,1.1.1,1.5.4c.4.3.7.6.9,1.1.2.4.3.9.3,1.5v.4h-4.5ZM452.8,7.8h3.6c0-.6-.2-1-.6-1.3-.3-.3-.7-.4-1.2-.4s-.9.1-1.2.4-.5.7-.5,1.3Z"/>
      <path class="cls-1" d="M458.1,10.2l.7-.6c.2.2.4.4.7.5.2.1.5.2.8.2s.7,0,1-.2.3-.4.3-.6,0-.5-.3-.6c-.2-.1-.5-.3-1-.4h-.2c-.4-.2-.7-.3-.9-.4s-.5-.3-.6-.5c-.2-.2-.3-.5-.3-.8s.2-.8.5-1.1.8-.4,1.5-.4.9,0,1.2.2.7.3.9.5l-.6.6c-.2-.1-.4-.3-.6-.4-.3-.1-.6-.2-.9-.2s-.6,0-.8.2-.3.3-.3.5,0,.4.3.5c.2.1.5.2.8.3h.2c.4.2.8.4,1.1.5.3.1.5.3.7.5.2.2.2.5.2.8,0,.6-.2,1-.6,1.3s-1,.4-1.6.4-.9,0-1.2-.2c-.3-.2-.6-.4-.9-.7Z"/>
      <path class="cls-1" d="M473.9,6.2c.2.3.3.7.3,1.2v3.6h-.9v-3.4c0-.5,0-.9-.3-1.2-.2-.3-.5-.4-.9-.4s-.9.2-1.1.6c-.2.4-.3.9-.3,1.4v3h-.9v-3.4c0-1.1-.4-1.6-1.2-1.6s-.9.2-1.1.6c-.2.4-.3.9-.3,1.3v3h-.9v-5.7h.8v.9c.3-.3.5-.6.8-.8s.6-.3,1-.3.8.1,1.1.3c.3.2.5.5.7.9.2-.4.4-.7.7-.9.3-.2.7-.3,1.1-.3s.7,0,1,.2c.3.2.5.4.7.7Z"/>
      <path class="cls-1" d="M480.9,11h-.8v-1c-.3.3-.6.6-.9.8-.4.2-.8.3-1.2.3s-1-.1-1.4-.4c-.4-.3-.7-.6-1-1.1-.2-.4-.4-.9-.4-1.5s.1-1.1.4-1.5.6-.8,1-1.1c.4-.3.9-.4,1.4-.4s.8,0,1.1.3c.3.2.6.4.8.8v-.9h.9v5.7ZM479.8,9.2c.2-.3.2-.7.2-1.1s0-.8-.2-1.1c-.2-.3-.4-.6-.7-.8-.3-.2-.6-.3-1-.3s-.7,0-1,.3c-.3.2-.5.4-.7.8-.2.3-.2.7-.2,1.1s0,.8.2,1.1c.2.3.4.6.7.8.3.2.6.3,1,.3s.7,0,1-.3c.3-.2.5-.4.7-.8Z"/>
      <path class="cls-1" d="M483.9,13.1h-.9l.9-2.2-2.3-5.6h1l1.8,4.6,1.8-4.6h1l-3.2,7.8Z"/>
      <path class="cls-1" d="M495.6,6.7c.2.4.4.9.4,1.5s-.1,1.1-.4,1.5c-.2.5-.6.8-1,1.1-.4.3-.9.4-1.4.4s-.8,0-1.2-.3c-.4-.2-.6-.4-.8-.7v.9h-.9V2.6h.9v3.6c.2-.3.5-.5.8-.7.3-.2.7-.3,1.1-.3s1,.1,1.4.4c.4.3.7.6,1,1.1ZM494.8,9.3c.2-.3.2-.7.2-1.1s0-.8-.2-1.1c-.2-.3-.4-.6-.7-.8-.3-.2-.6-.3-1-.3s-.7,0-1,.3c-.3.2-.5.4-.7.8-.2.3-.2.7-.2,1.1s0,.8.2,1.1c.2.3.4.6.7.8.3.2.6.3,1,.3s.7,0,1-.3c.3-.2.5-.4.7-.7Z"/>
      <path class="cls-1" d="M497.9,8.5c0,.6.3,1,.6,1.3.3.3.8.4,1.3.4s.7,0,1-.2.5-.3.7-.5l.7.6c-.3.3-.6.5-1,.7-.4.2-.9.3-1.4.3s-1.1-.1-1.5-.4c-.4-.2-.8-.6-1-1-.2-.4-.3-1-.3-1.6s.1-1.1.3-1.6c.2-.4.5-.8,1-1s.9-.4,1.5-.4,1.1.1,1.5.4c.4.3.7.6.9,1.1.2.4.3.9.3,1.5v.4h-4.5ZM497.9,7.8h3.6c0-.6-.2-1-.6-1.3-.3-.3-.7-.4-1.2-.4s-.9.1-1.2.4-.5.7-.5,1.3Z"/>
      <path class="cls-1" d="M508.9,6.2c-.2,0-.3,0-.5,0-.5,0-.9.2-1.1.6-.2.4-.4.9-.4,1.6v2.7h-.9v-5.7h.8v1c.3-.4.5-.7.8-.9.3-.2.6-.3,1-.3s.3,0,.4,0v1Z"/>
      <path class="cls-1" d="M510.3,8.5c0,.6.3,1,.6,1.3.3.3.8.4,1.3.4s.7,0,1-.2.5-.3.7-.5l.7.6c-.3.3-.6.5-1,.7-.4.2-.9.3-1.4.3s-1.1-.1-1.5-.4c-.4-.2-.8-.6-1-1-.2-.4-.3-1-.3-1.6s.1-1.1.3-1.6c.2-.4.5-.8,1-1s.9-.4,1.5-.4,1.1.1,1.5.4c.4.3.7.6.9,1.1.2.4.3.9.3,1.5v.4h-4.5ZM510.3,7.8h3.6c0-.6-.2-1-.6-1.3-.3-.3-.7-.4-1.2-.4s-.9.1-1.2.4-.5.7-.5,1.3Z"/>
      <path class="cls-1" d="M521.4,13.1h-.9v-3.1c-.2.3-.5.6-.8.8s-.7.3-1.1.3-.9-.1-1.4-.4c-.4-.3-.7-.6-1-1.1s-.4-.9-.4-1.5.1-1.1.4-1.5.6-.8,1-1.1c.4-.3.9-.4,1.4-.4s.8,0,1.2.3c.4.2.6.5.8.8v-1h.9v7.8ZM520.3,9.3c.2-.3.2-.7.2-1.1s0-.8-.2-1.1c-.2-.3-.4-.6-.7-.8-.3-.2-.6-.3-1-.3s-.7,0-1,.3c-.3.2-.5.4-.7.8-.2.3-.2.7-.2,1.1s0,.8.2,1.1c.2.3.4.6.7.8.3.2.6.3,1,.3s.7,0,1-.3c.3-.2.5-.4.7-.8Z"/>
      <path class="cls-1" d="M522.7,8.9v-3.5h.9v3.3c0,1.1.5,1.7,1.5,1.7s1.5-.6,1.5-1.7v-3.3h.9v3.5c0,.7-.2,1.2-.6,1.7-.4.4-1,.6-1.8.6s-1.4-.2-1.8-.6-.6-1-.6-1.7Z"/>
      <path class="cls-1" d="M528.6,3.5c0-.2,0-.4.2-.5.1-.1.3-.2.5-.2s.4,0,.5.2c.1.1.2.3.2.5s0,.4-.2.5c-.1.1-.3.2-.5.2s-.4,0-.5-.2c-.1-.1-.2-.3-.2-.5ZM529.8,5.3v5.7h-.9v-5.7h.9Z"/>
      <path class="cls-1" d="M534.2,6.2c-.2,0-.3,0-.5,0-.5,0-.9.2-1.1.6-.2.4-.4.9-.4,1.6v2.7h-.9v-5.7h.8v1c.3-.4.5-.7.8-.9.3-.2.6-.3,1-.3s.3,0,.4,0v1Z"/>
      <path class="cls-1" d="M535.5,8.5c0,.6.3,1,.6,1.3.3.3.8.4,1.3.4s.7,0,1-.2.5-.3.7-.5l.7.6c-.3.3-.6.5-1,.7-.4.2-.9.3-1.4.3s-1.1-.1-1.5-.4c-.4-.2-.8-.6-1-1-.2-.4-.3-1-.3-1.6s.1-1.1.3-1.6c.2-.4.5-.8,1-1s.9-.4,1.5-.4,1.1.1,1.5.4c.4.3.7.6.9,1.1.2.4.3.9.3,1.5v.4h-4.5ZM535.5,7.8h3.6c0-.6-.2-1-.6-1.3-.3-.3-.7-.4-1.2-.4s-.9.1-1.2.4-.5.7-.5,1.3Z"/>
      <path class="cls-1" d="M545.5,11h-.8v-.9c-.3.3-.6.6-.9.8-.3.2-.7.3-1.2.3s-1-.1-1.4-.4c-.4-.3-.7-.6-1-1.1-.2-.5-.4-.9-.4-1.5s.1-1.1.4-1.5.6-.8,1-1.1.9-.4,1.4-.4.8,0,1.1.3.6.4.8.7v-3.6h.9v8.4ZM544.4,9.2c.2-.3.2-.7.2-1.1s0-.8-.2-1.1c-.2-.3-.4-.6-.7-.8-.3-.2-.6-.3-1-.3s-.7,0-1,.3c-.3.2-.5.4-.7.8-.2.3-.2.7-.2,1.1s0,.8.2,1.1c.2.3.4.6.7.7.3.2.6.3,1,.3s.7,0,1-.3c.3-.2.5-.4.7-.8Z"/>
      <path class="cls-1" d="M546.8,10.4c0-.2,0-.4.2-.5.1-.1.3-.2.5-.2s.4,0,.5.2c.1.1.2.3.2.5s0,.4-.2.5c-.1.1-.3.2-.5.2s-.4,0-.5-.2c-.1-.1-.2-.3-.2-.5Z"/>
      <path class="cls-1" d="M551.7,9.7l.7-.6c.6.8,1.4,1.2,2.3,1.2s1.1-.1,1.4-.4.6-.7.6-1.2-.1-.8-.4-1c-.3-.2-.7-.4-1.2-.5l-.9-.3c-.4-.1-.8-.2-1.1-.4-.3-.1-.6-.4-.9-.7-.3-.3-.4-.7-.4-1.2s.1-.9.4-1.2.6-.6,1-.7c.4-.2.9-.2,1.4-.2s1.1.1,1.6.3.9.5,1.2.9l-.6.7c-.3-.3-.6-.6-1-.7-.4-.2-.8-.3-1.3-.3s-.9.1-1.3.3c-.4.2-.5.5-.5.9s.2.7.5.9.7.4,1.1.5l.9.3c.4.1.8.3,1.1.4.3.2.6.4.9.7s.4.7.4,1.2-.1.9-.4,1.3c-.3.4-.6.6-1.1.8-.5.2-1,.3-1.5.3s-1.2-.1-1.7-.4c-.5-.2-.9-.6-1.3-1.1Z"/>
      <path class="cls-1" d="M563.7,11h-4.7V2.6h4.7v.8h-3.7v2.8h3.5v.8h-3.5v3.1h3.8v.8Z"/>
      <path class="cls-1" d="M566,9.2l-.6,1.8h-1l2.8-8.4h1.1l2.8,8.4h-1l-.6-1.8h-3.6ZM567.8,3.6l-1.5,4.8h3.1l-1.5-4.8Z"/>
      <path class="cls-1" d="M573.9,3.5v7.5h-1V3.5h-2.5v-.8h5.9v.8h-2.5Z"/>
      <path class="cls-1" d="M580.9,6.2h3.2v.8h-3.2v3.9h-.9V2.6h4.5v.8h-3.5v2.8Z"/>
      <path class="cls-1" d="M585.3,3.5c0-.2,0-.4.2-.5.1-.1.3-.2.5-.2s.4,0,.5.2c.1.1.2.3.2.5s0,.4-.2.5c-.1.1-.3.2-.5.2s-.4,0-.5-.2-.2-.3-.2-.5ZM586.5,5.3v5.7h-.9v-5.7h.9Z"/>
      <path class="cls-1" d="M592.8,7.4v3.6h-.9v-3.4c0-.5-.1-1-.3-1.2s-.6-.4-1.1-.4-.7.1-.9.3c-.2.2-.4.5-.5.8-.1.3-.2.6-.2.9v3h-.9v-5.7h.8v1c.3-.4.5-.6.9-.8.3-.2.7-.3,1.1-.3.7,0,1.2.2,1.5.6s.5.9.5,1.6Z"/>
      <path class="cls-1" d="M599.5,11h-.8v-1c-.3.3-.6.6-.9.8-.4.2-.8.3-1.2.3s-1-.1-1.4-.4c-.4-.3-.7-.6-1-1.1-.2-.4-.4-.9-.4-1.5s.1-1.1.4-1.5.6-.8,1-1.1c.4-.3.9-.4,1.4-.4s.8,0,1.1.3c.3.2.6.4.8.8v-.9h.9v5.7ZM598.4,9.2c.2-.3.2-.7.2-1.1s0-.8-.2-1.1c-.2-.3-.4-.6-.7-.8-.3-.2-.6-.3-1-.3s-.7,0-1,.3c-.3.2-.5.4-.7.8-.2.3-.2.7-.2,1.1s0,.8.2,1.1c.2.3.4.6.7.8.3.2.6.3,1,.3s.7,0,1-.3c.3-.2.5-.4.7-.8Z"/>
      <path class="cls-1" d="M605.9,7.4v3.6h-.9v-3.4c0-.5-.1-1-.3-1.2s-.6-.4-1.1-.4-.7.1-.9.3c-.2.2-.4.5-.5.8-.1.3-.2.6-.2.9v3h-.9v-5.7h.8v1c.3-.4.5-.6.9-.8.3-.2.7-.3,1.1-.3.7,0,1.2.2,1.5.6s.5.9.5,1.6Z"/>
      <path class="cls-1" d="M607.4,9.7c-.2-.4-.4-1-.4-1.5s.1-1.1.4-1.5c.2-.5.6-.8,1-1,.4-.2.9-.4,1.4-.4s.8,0,1.1.2.6.3.9.6l-.6.6c-.2-.2-.4-.3-.6-.4-.2-.1-.5-.2-.8-.2s-.7,0-1,.3c-.3.2-.5.4-.7.7s-.2.7-.2,1.1,0,.8.2,1.1.4.6.7.7c.3.2.6.3,1,.3s.6,0,.8-.2c.2-.1.5-.3.6-.5l.7.6c-.2.3-.6.5-.9.7-.4.2-.8.2-1.2.2s-1-.1-1.5-.4c-.4-.2-.8-.6-1-1Z"/>
      <path class="cls-1" d="M612.3,8.5c0,.6.3,1,.6,1.3.3.3.8.4,1.3.4s.7,0,1-.2.5-.3.7-.5l.7.6c-.3.3-.6.5-1,.7-.4.2-.9.3-1.4.3s-1.1-.1-1.5-.4c-.4-.2-.8-.6-1-1-.2-.4-.3-1-.3-1.6s.1-1.1.3-1.6c.2-.4.5-.8,1-1s.9-.4,1.5-.4,1.1.1,1.5.4c.4.3.7.6.9,1.1.2.4.3.9.3,1.5v.4h-4.5ZM612.3,7.8h3.6c0-.6-.2-1-.6-1.3-.3-.3-.7-.4-1.2-.4s-.9.1-1.2.4-.5.7-.5,1.3Z"/>
      <path class="cls-1" d="M617.5,10.4c0-.2,0-.4.2-.5.1-.1.3-.2.5-.2s.4,0,.5.2c.1.1.2.3.2.5s0,.4-.2.5c-.1.1-.3.2-.5.2s-.4,0-.5-.2c-.1-.1-.2-.3-.2-.5Z"/>
    </g>
  </g>
</svg>